0
SECTION
2
HEADER
9
$INSUNITS
70
4
9
$ACADVER
1
AC1014
9
$HANDSEED
5
FFFF
0
ENDSEC
0
SECTION
2
TABLES
0
TABLE
2
VPORT
5
8
100
AcDbSymbolTable
0
ENDTAB
0
TABLE
2
LTYPE
5
5
100
AcDbSymbolTable
0
LTYPE
5
14
100
AcDbSymbolTableRecord
100
AcDbLinetypeTableRecord
2
BYBLOCK
70
0
0
LTYPE
5
15
100
AcDbSymbolTableRecord
100
AcDbLinetypeTableRecord
2
BYLAYER
70
0
0
ENDTAB
0
TABLE
2
LAYER
5
2
100
AcDbSymbolTable
70
2
0
LAYER
5
50
100
AcDbSymbolTableRecord
100
AcDbLayerTableRecord
2
0
70
0
6
CONTINUOUS
0
ENDTAB
0
TABLE
2
STYLE
5
3
100
AcDbSymbolTable
70
1
0
STYLE
5
11
100
AcDbSymbolTableRecord
100
AcDbTextStyleTableRecord
2
STANDARD
70
0
0
ENDTAB
0
TABLE
2
VIEW
5
6
100
AcDbSymbolTable
70
0
0
ENDTAB
0
TABLE
2
UCS
5
7
100
AcDbSymbolTable
70
0
0
ENDTAB
0
TABLE
2
APPID
5
9
100
AcDbSymbolTable
70
2
0
APPID
5
12
100
AcDbSymbolTableRecord
100
AcDbRegAppTableRecord
2
ACAD
70
0
0
ENDTAB
0
TABLE
2
DIMSTYLE
5
A
100
AcDbSymbolTable
70
1
0
ENDTAB
0
TABLE
2
BLOCK_RECORD
5
1
100
AcDbSymbolTable
70
1
0
BLOCK_RECORD
5
1F
100
AcDbSymbolTableRecord
100
AcDbBlockTableRecord
2
*MODEL_SPACE
0
BLOCK_RECORD
5
1B
100
AcDbSymbolTableRecord
100
AcDbBlockTableRecord
2
*PAPER_SPACE
0
ENDTAB
0
ENDSEC
0
SECTION
2
BLOCKS
0
BLOCK
5
20
100
AcDbEntity
100
AcDbBlockBegin
2
*MODEL_SPACE
0
ENDBLK
5
21
100
AcDbEntity
100
AcDbBlockEnd
0
BLOCK
5
1C
100
AcDbEntity
100
AcDbBlockBegin
2
*PAPER_SPACE
0
ENDBLK
5
1D
100
AcDbEntity
100
AcDbBlockEnd
0
ENDSEC
0
SECTION
2
ENTITIES
0
LWPOLYLINE
5
100
100
AcDbEntity
8
0
100
AcDbPolyline
90
8
70
1
43
0.0
10
-21.287500000000001
20
35.075000000000003
42
-0.41421356237309509
10
-20.787500000000001
20
35.575000000000003
10
-7.787500000000005
20
35.575000000000003
42
-0.4142135623731002
10
-7.2874999999999996
20
35.075000000000003
10
-7.2875000000000023
20
22.074999999999996
42
-0.41421356237309243
10
-7.7875000000000005
20
21.575000000000003
10
-20.787500000000001
20
21.575000000000003
42
-0.41421356237309509
10
-21.287500000000001
20
22.074999999999999
0
LWPOLYLINE
5
101
100
AcDbEntity
8
0
100
AcDbPolyline
90
8
70
1
43
0.0
10
-59.387500000000003
20
35.075000000000003
42
-0.41421356237309509
10
-58.88750000000001
20
35.575000000000003
10
-45.887500000000003
20
35.575000000000003
42
-0.41421356237309509
10
-45.387500000000003
20
35.075000000000003
10
-45.387500000000003
20
22.074999999999999
42
-0.41421356237309509
10
-45.887500000000003
20
21.575000000000003
10
-58.88750000000001
20
21.575000000000003
42
-0.41421356237309509
10
-59.387500000000003
20
22.074999999999999
0
LWPOLYLINE
5
102
100
AcDbEntity
8
0
100
AcDbPolyline
90
8
70
1
43
0.0
10
-26.050000000000001
20
54.125000000000007
42
-0.41421356237309509
10
-25.550000000000001
20
54.625
10
-12.549999999999999
20
54.625
42
-0.4142135623730937
10
-12.050000000000001
20
54.125000000000007
10
-12.050000000000002
20
41.125
42
-0.41421356237309509
10
-12.550000000000001
20
40.625
10
-25.550000000000001
20
40.625
42
-0.41421356237309509
10
-26.050000000000001
20
41.125
0
LWPOLYLINE
5
103
100
AcDbEntity
8
0
100
AcDbPolyline
90
8
70
1
43
0.0
10
-40.337499999999991
20
35.075000000000003
42
-0.41421356237312101
10
-39.837499999999999
20
35.575000000000003
10
-26.837499999999999
20
35.575000000000003
42
-0.41421356237309509
10
-26.337499999999999
20
35.075000000000003
10
-26.337499999999999
20
22.074999999999999
42
-0.41421356237309509
10
-26.837499999999999
20
21.575000000000003
10
-39.837499999999999
20
21.574999999999992
42
-0.41421356237310802
10
-40.337500000000006
20
22.074999999999999
0
LWPOLYLINE
5
104
100
AcDbEntity
8
0
100
AcDbPolyline
90
8
70
1
43
0.0
10
-45.099999999999994
20
54.125000000000007
42
-0.41421356237309509
10
-44.600000000000001
20
54.625
10
-31.600000000000001
20
54.625
42
-0.41421356237309509
10
-31.100000000000001
20
54.125000000000007
10
-31.100000000000001
20
41.125
42
-0.41421356237309509
10
-31.600000000000001
20
40.625
10
-44.600000000000001
20
40.625
42
-0.41421356237309509
10
-45.099999999999994
20
41.125
0
LWPOLYLINE
5
105
100
AcDbEntity
8
0
100
AcDbPolyline
90
8
70
1
43
0.0
10
-16.525000000000002
20
16.024999999999999
42
-0.41421356237309243
10
-16.024999999999999
20
16.525000000000002
10
-3.0250000000000021
20
16.525000000000002
42
-0.41421356237309637
10
-2.5249999999999999
20
16.024999999999999
10
-2.5249999999999999
20
3.0250000000000021
42
-0.4142135623730957
10
-3.0249999999999999
20
2.5249999999999999
10
-16.024999999999999
20
2.524999999999999
42
-0.41421356237309276
10
-16.525000000000002
20
3.0249999999999999
0
LWPOLYLINE
5
106
100
AcDbEntity
8
0
100
AcDbPolyline
90
8
70
1
43
0.0
10
-40.624999999999993
20
3.0250000000000021
42
-0.41421356237309437
10
-41.125
20
2.5249999999999999
10
-54.125000000000007
20
2.525000000000003
42
-0.41421356237309437
10
-54.625
20
3.0249999999999999
10
-54.625
20
16.024999999999999
42
-0.4142135623730937
10
-54.125000000000007
20
16.525000000000002
10
-41.125
20
16.524999999999999
42
-0.41421356237309509
10
-40.625
20
16.024999999999999
0
LWPOLYLINE
5
107
100
AcDbEntity
8
0
100
AcDbPolyline
90
8
70
1
43
0.0
10
-35.575000000000003
20
16.024999999999999
42
-0.41421356237309509
10
-35.075000000000003
20
16.525000000000002
10
-22.074999999999996
20
16.525000000000002
42
-0.4142135623730937
10
-21.575000000000003
20
16.024999999999999
10
-21.575000000000003
20
3.0250000000000021
42
-0.4142135623730967
10
-22.074999999999999
20
2.5249999999999999
10
-35.075000000000003
20
2.5250000000000004
42
-0.4142135623730957
10
-35.575000000000003
20
3.0249999999999999
0
LWPOLYLINE
5
108
100
AcDbEntity
8
0
100
AcDbPolyline
90
8
70
1
43
0.0
10
-64.150000000000006
20
54.125000000000007
42
-0.41421356237309509
10
-63.650000000000006
20
54.625
10
-50.650000000000006
20
54.625
42
-0.41421356237309509
10
-50.150000000000006
20
54.125000000000007
10
-50.150000000000006
20
41.125
42
-0.41421356237309509
10
-50.650000000000006
20
40.625
10
-63.650000000000006
20
40.625
42
-0.41421356237309509
10
-64.150000000000006
20
41.125
0
LWPOLYLINE
5
109
100
AcDbEntity
8
0
100
AcDbPolyline
90
24
70
1
43
0.0
10
2
20
5.3879831414916905e-16
42
-0.41421356237309509
10
0
20
-2
10
-57.15000449672953
20
-2.0000000000000067
42
-0.41421356237309442
10
-59.150004496729537
20
0
10
-59.15000449672953
20
15.379787307435029
42
0.41421356237309509
10
-61.150004496729537
20
17.379787307435031
10
-61.912539376805995
20
17.379787307435016
42
-0.41421356237309309
10
-63.912539376806009
20
19.379787307435031
10
-63.912539376805995
20
34.229176871798082
42
0.41421356237309509
10
-65.912539376805995
20
36.229176871798082
10
-66.675000000000011
20
36.229176871798074
42
-0.41421356237309243
10
-68.675000000000011
20
38.229176871798089
10
-68.675000000000011
20
57.149999999999999
42
-0.41421356237309243
10
-66.675000000000011
20
59.150000000000006
10
-9.5247797070858624
20
59.149999999999999
42
-0.4142135623730947
10
-7.5247797070858624
20
57.149999999999999
10
-7.5247797070858633
20
41.724999999999994
42
0.41421356237309509
10
-5.5247797070858624
20
39.725000000000001
10
-4.7620063197584566
20
39.724999999999994
42
-0.41421356237309603
10
-2.7620063197584566
20
37.724999999999994
10
-2.7620063197584557
20
22.722283865133921
42
0.41421356237309515
10
-0.76200631975845479
20
20.722283865133917
10
-1.779758311459912e-16
20
20.722283865133925
42
-0.41421356237309481
10
2.0000000000000018
20
18.722283865133921
0
ENDSEC
0
SECTION
2
OBJECTS
0
DICTIONARY
5
C
100
AcDbDictionary
3
ACAD_GROUP
350
D
3
ACAD_MLINESTYLE
350
17
0
DICTIONARY
5
D
100
AcDbDictionary
0
DICTIONARY
5
1A
330
C
100
AcDbDictionary
0
DICTIONARY
5
17
100
AcDbDictionary
0
ENDSEC
0
EOF
